<?xml version="1.0" standalone="no"?>
<!DOCTYPE svg PUBLIC "-//W3C//DTD SVG 20010904//EN"
 "http://www.w3.org/TR/2001/REC-SVG-20010904/DTD/svg10.dtd">
<svg version="1.0" xmlns="http://www.w3.org/2000/svg"
 width="482.000000pt" height="267.000000pt" viewBox="0 0 482.000000 267.000000"
 preserveAspectRatio="xMidYMid meet">

<g transform="translate(0.000000,267.000000) scale(0.100000,-0.100000)"
fill="#000000" stroke="none">
<path d="M1592 2635 c-60 -18 -108 -58 -141 -116 -15 -27 -72 -155 -126 -284
-54 -130 -99 -234 -101 -233 -8 9 -164 411 -164 423 0 9 10 20 23 25 16 6 -4
9 -68 9 l-90 1 34 -18 c31 -16 43 -38 144 -270 61 -139 114 -249 118 -245 3 5
63 134 133 288 70 154 141 301 158 326 34 50 68 75 132 95 30 9 34 13 16 13
-14 0 -44 -6 -68 -14z"/>
<path d="M1570 2209 c-57 -137 -111 -256 -120 -263 -8 -8 -24 -16 -35 -19 -11
-2 16 -5 60 -5 57 -1 74 2 58 8 -29 12 -29 20 4 108 l28 72 105 0 105 0 28
-73 c33 -89 33 -95 5 -107 -16 -6 4 -9 67 -8 50 0 80 3 68 5 -13 2 -31 15 -41
28 -10 12 -63 131 -118 264 -54 132 -101 241 -104 241 -3 0 -52 -113 -110
-251z m154 38 l44 -117 -94 0 c-52 0 -94 3 -94 8 0 8 78 211 87 225 8 13 9 11
57 -116z"/>
<path d="M2050 2209 c0 -269 0 -271 -45 -282 -11 -2 16 -5 60 -5 44 0 71 2 60
5 -41 10 -45 28 -45 230 0 106 3 193 8 193 7 0 259 -265 372 -392 l45 -50 -3
242 c-2 133 -1 253 2 265 3 13 18 28 33 33 23 9 13 10 -52 10 -44 0 -71 -3
-60 -5 44 -11 45 -16 45 -227 l0 -201 -78 80 c-43 44 -137 143 -209 220 l-132
140 -1 -256z"/>
<path d="M521 2357 c-7 -9 -8 -29 -3 -58 7 -39 11 -44 36 -47 l28 -4 -7 54
c-4 29 -9 56 -12 61 -7 11 -30 8 -42 -6z"/>
<path d="M190 2195 c0 -42 121 -1240 126 -1244 4 -5 743 108 755 115 6 3 -174
1101 -182 1108 -2 2 -128 11 -279 20 -151 9 -308 19 -347 22 l-73 6 0 -27z"/>
<path d="M1378 1587 c-141 -40 -228 -180 -198 -320 43 -201 260 -286 462 -179
4 2 14 -14 23 -35 36 -85 112 -133 210 -132 33 1 71 4 85 8 17 5 4 8 -40 8
-86 0 -131 16 -173 63 -42 46 -60 115 -55 215 3 63 5 71 28 82 22 11 17 13
-50 12 -41 0 -68 -3 -60 -6 30 -11 40 -37 40 -103 0 -73 -6 -83 -67 -114 -48
-24 -114 -30 -174 -16 -42 10 -64 24 -104 64 -56 57 -75 103 -75 186 0 83 19
129 75 186 43 43 61 54 109 65 100 22 200 -16 240 -93 14 -26 16 -28 12 -8 -3
14 -6 37 -6 51 0 22 -8 30 -51 48 -63 28 -168 35 -231 18z"/>
<path d="M2010 1587 c-137 -39 -207 -143 -198 -292 4 -56 11 -84 32 -119 113
-194 447 -173 533 32 19 45 21 145 4 205 -18 63 -77 129 -142 156 -63 27 -168
36 -229 18z m219 -45 c113 -70 146 -262 66 -384 -50 -75 -167 -115 -263 -88
-58 15 -126 79 -149 138 -24 62 -24 163 0 224 22 56 91 121 145 137 60 17 150
5 201 -27z"/>
<path d="M2689 1594 c-15 -3 -51 -19 -80 -37 -173 -104 -166 -382 11 -481 49
-28 64 -31 135 -31 62 0 92 6 132 24 80 36 92 53 95 146 3 75 4 80 28 86 15 4
-8 7 -55 7 -47 0 -70 -3 -55 -7 24 -7 25 -9 25 -96 l0 -89 -50 -25 c-98 -51
-227 -28 -285 51 -48 65 -65 190 -38 282 18 58 91 131 148 146 85 23 189 -10
229 -72 l21 -33 0 28 c0 43 -15 63 -62 82 -43 17 -151 27 -199 19z"/>
<path d="M3100 1579 c13 -6 28 -15 32 -22 10 -16 10 -458 0 -474 -4 -7 -19
-16 -32 -22 -19 -8 -6 -10 60 -10 68 1 80 3 58 11 -34 12 -40 41 -36 158 l3
85 155 0 155 0 3 -109 c3 -114 -2 -131 -41 -139 -12 -2 19 -4 68 -4 50 -1 81
2 70 4 -44 11 -45 14 -45 263 0 249 1 252 45 263 11 2 -20 5 -70 5 -49 0 -81
-3 -70 -5 41 -10 45 -21 45 -139 l0 -114 -160 0 -160 0 0 101 c0 107 8 135 43
149 15 6 -4 9 -63 9 -66 0 -79 -2 -60 -10z"/>
<path d="M137 783 c-59 -137 -107 -255 -107 -264 0 -19 21 -31 37 -21 20 13
193 424 192 456 -3 93 -12 80 -122 -171z"/>
<path d="M755 959 c-115 -21 -240 -43 -277 -49 l-68 -12 0 -34 c0 -27 4 -34
20 -34 11 0 20 -1 21 -2 1 -2 4 -180 8 -396 8 -408 9 -420 49 -405 12 5 14 48
11 281 l-4 275 238 65 c131 35 241 62 244 59 3 -4 33 -95 67 -203 61 -197 80
-234 108 -206 9 9 -9 79 -84 319 -92 294 -96 308 -77 317 11 5 17 16 14 24 -3
7 -5 20 -5 28 0 20 -24 17 -265 -27z m202 -111 c12 -40 19 -76 15 -79 -9 -8
-426 -119 -447 -119 -13 0 -15 14 -13 97 l3 97 200 37 c110 20 205 37 210 38
6 1 21 -32 32 -71z"/>
<path d="M1475 751 c49 -8 95 -38 95 -61 0 -15 -140 -359 -184 -453 -13 -26
-28 -40 -50 -46 -25 -8 -16 -9 48 -10 69 -1 77 1 61 12 -22 17 -18 48 19 131
l25 57 102 -3 103 -3 36 -95 c20 -53 46 -112 58 -132 31 -50 105 -116 139
-123 15 -4 33 -8 39 -10 6 -2 26 0 45 5 l34 8 -34 1 c-89 3 -172 98 -235 270
-19 53 -56 154 -81 225 -72 199 -105 237 -207 235 -52 -1 -53 -2 -13 -8z m173
-232 c23 -64 38 -120 35 -123 -8 -7 -178 -8 -185 -1 -3 3 12 52 34 108 22 56
44 113 49 126 6 14 13 20 18 15 5 -5 27 -61 49 -125z"/>
<path d="M2572 712 c-60 -22 -114 -68 -145 -127 -32 -58 -32 -212 0 -271 52
-97 159 -152 275 -141 105 9 189 79 187 154 l-1 38 -14 -42 c-47 -131 -225
-174 -337 -82 -56 46 -81 109 -81 209 -1 100 23 161 82 210 98 80 261 54 316
-52 l17 -33 -5 34 c-3 18 -6 41 -6 51 0 26 -92 62 -170 67 -46 2 -80 -2 -118
-15z"/>
<path d="M4585 720 c-82 -3 -141 -7 -129 -8 42 -4 44 -15 44 -263 0 -248 -1
-251 -45 -262 -11 -2 53 -5 142 -6 l161 -1 16 47 c9 26 16 48 16 50 0 1 -15
-14 -34 -34 -32 -36 -35 -37 -120 -41 l-86 -5 0 122 0 121 63 0 c40 0 70 -5
85 -16 22 -15 22 -14 22 22 0 30 -3 35 -12 26 -7 -7 -42 -12 -85 -12 l-73 0 0
120 0 120 78 0 c54 0 84 -5 100 -16 21 -15 22 -14 22 15 0 17 -3 30 -7 29 -5
-1 -75 -5 -158 -8z"/>
<path d="M1925 713 c45 -12 45 -14 45 -263 0 -249 -1 -252 -45 -263 -11 -2 21
-5 70 -5 50 0 81 3 70 5 -45 11 -45 14 -45 271 l0 245 67 -6 c59 -4 71 -9 95
-36 23 -26 28 -41 28 -84 0 -81 -46 -127 -127 -127 -37 0 -37 -1 -13 -13 13
-7 56 -57 95 -112 77 -109 127 -146 195 -144 l35 1 -29 8 c-36 11 -76 49 -129
120 -22 30 -54 70 -70 88 -30 31 -30 32 -8 32 14 0 39 16 61 38 68 68 62 171
-13 226 -25 19 -45 21 -165 23 -75 1 -128 -1 -117 -4z"/>
<path d="M2995 713 c44 -11 45 -14 45 -263 0 -249 -1 -252 -45 -263 -11 -2 21
-5 70 -4 50 0 80 2 68 4 -39 8 -44 25 -41 139 l3 109 155 0 155 0 3 -95 c4
-117 -1 -136 -35 -148 -23 -8 -12 -10 57 -10 66 0 79 2 59 9 -15 6 -30 20 -33
32 -11 40 -7 437 5 458 6 11 20 24 32 29 15 6 -4 9 -63 9 -66 0 -79 -2 -60
-10 13 -6 28 -15 32 -22 4 -7 8 -60 8 -119 l0 -108 -160 0 -160 0 0 114 c0
118 4 129 45 139 11 2 -20 5 -70 5 -49 0 -81 -3 -70 -5z"/>
<path d="M3625 713 c44 -11 45 -14 45 -263 0 -249 -1 -252 -45 -263 -11 -2 21
-5 70 -5 50 0 81 3 70 5 -44 11 -45 14 -45 263 0 249 1 252 45 263 11 2 -20 5
-70 5 -49 0 -81 -3 -70 -5z"/>
<path d="M3849 702 c31 -16 43 -38 144 -270 61 -139 114 -249 118 -245 3 5 54
116 113 248 59 132 114 247 123 257 8 9 25 19 37 21 11 2 -15 4 -59 4 -44 1
-73 -1 -63 -4 9 -2 19 -11 22 -20 6 -13 -162 -438 -170 -431 -8 9 -164 411
-164 423 0 9 10 20 23 25 16 6 -4 9 -68 9 l-90 1 34 -18z"/>
</g>
</svg>
